<svg xmlns="http://www.w3.org/2000/svg" xmlns:xlink="http://www.w3.org/1999/xlink">
<defs>
<symbol viewBox="0 0 24 24" id="check"><path fill="none" stroke="currentColor" stroke-linecap="round" stroke-linejoin="round" stroke-width="2" d="M20 6L9 17l-5-5"></path></symbol>
<symbol viewBox="0 0 24 24" id="chevron-down"><path fill="none" stroke="currentColor" stroke-linecap="round" stroke-linejoin="round" stroke-width="2" d="m6 9l6 6l6-6"></path></symbol>
<symbol viewBox="0 0 24 24" id="chevron-first"><path fill="none" stroke="currentColor" stroke-linecap="round" stroke-linejoin="round" stroke-width="2" d="m17 18l-6-6l6-6M7 6v12"></path></symbol>
<symbol viewBox="0 0 24 24" id="chevron-last"><path fill="none" stroke="currentColor" stroke-linecap="round" stroke-linejoin="round" stroke-width="2" d="m7 18l6-6l-6-6m10 0v12"></path></symbol>
<symbol viewBox="0 0 24 24" id="chevron-left"><path fill="none" stroke="currentColor" stroke-linecap="round" stroke-linejoin="round" stroke-width="2" d="m15 18l-6-6l6-6"></path></symbol>
<symbol viewBox="0 0 24 24" id="chevron-right"><path fill="none" stroke="currentColor" stroke-linecap="round" stroke-linejoin="round" stroke-width="2" d="m9 18l6-6l-6-6"></path></symbol>
<symbol viewBox="0 0 24 24" id="chevron-up"><path fill="none" stroke="currentColor" stroke-linecap="round" stroke-linejoin="round" stroke-width="2" d="m18 15l-6-6l-6 6"></path></symbol>
<symbol viewBox="0 0 24 24" id="chevrons-down"><path fill="none" stroke="currentColor" stroke-linecap="round" stroke-linejoin="round" stroke-width="2" d="m7 6l5 5l5-5M7 13l5 5l5-5"></path></symbol>
<symbol viewBox="0 0 24 24" id="chevrons-down-up"><path fill="none" stroke="currentColor" stroke-linecap="round" stroke-linejoin="round" stroke-width="2" d="m7 20l5-5l5 5M7 4l5 5l5-5"></path></symbol>
<symbol viewBox="0 0 24 24" id="chevrons-left"><path fill="none" stroke="currentColor" stroke-linecap="round" stroke-linejoin="round" stroke-width="2" d="m11 17l-5-5l5-5m7 10l-5-5l5-5"></path></symbol>
<symbol viewBox="0 0 24 24" id="chevrons-left-right"><path fill="none" stroke="currentColor" stroke-linecap="round" stroke-linejoin="round" stroke-width="2" d="m9 7l-5 5l5 5m6-10l5 5l-5 5"></path></symbol>
<symbol viewBox="0 0 24 24" id="chevrons-left-right-ellipsis"><path fill="none" stroke="currentColor" stroke-linecap="round" stroke-linejoin="round" stroke-width="2" d="m18 8l4 4l-4 4M6 8l-4 4l4 4m2-4h.01M12 12h.01M16 12h.01"></path></symbol>
<symbol viewBox="0 0 24 24" id="chevrons-right"><path fill="none" stroke="currentColor" stroke-linecap="round" stroke-linejoin="round" stroke-width="2" d="m6 17l5-5l-5-5m7 10l5-5l-5-5"></path></symbol>
<symbol viewBox="0 0 24 24" id="chevrons-right-left"><path fill="none" stroke="currentColor" stroke-linecap="round" stroke-linejoin="round" stroke-width="2" d="m20 17l-5-5l5-5M4 17l5-5l-5-5"></path></symbol>
<symbol viewBox="0 0 24 24" id="chevrons-up"><path fill="none" stroke="currentColor" stroke-linecap="round" stroke-linejoin="round" stroke-width="2" d="m17 11l-5-5l-5 5m10 7l-5-5l-5 5"></path></symbol>
<symbol viewBox="0 0 24 24" id="chevrons-up-down"><path fill="none" stroke="currentColor" stroke-linecap="round" stroke-linejoin="round" stroke-width="2" d="m7 15l5 5l5-5M7 9l5-5l5 5"></path></symbol>
<symbol viewBox="0 0 24 24" id="loader"><path fill="none" stroke="currentColor" stroke-linecap="round" stroke-linejoin="round" stroke-width="2" d="M12 2v4m4.2 1.8l2.9-2.9M18 12h4m-5.8 4.2l2.9 2.9M12 18v4m-7.1-2.9l2.9-2.9M2 12h4M4.9 4.9l2.9 2.9"></path></symbol>
<symbol viewBox="0 0 24 24" id="loader-circle"><path fill="none" stroke="currentColor" stroke-linecap="round" stroke-linejoin="round" stroke-width="2" d="M21 12a9 9 0 1 1-6.219-8.56"></path></symbol>
<symbol viewBox="0 0 24 24" id="minus"><path fill="none" stroke="currentColor" stroke-linecap="round" stroke-linejoin="round" stroke-width="2" d="M5 12h14"></path></symbol>
<symbol viewBox="0 0 24 24" id="plus"><path fill="none" stroke="currentColor" stroke-linecap="round" stroke-linejoin="round" stroke-width="2" d="M5 12h14m-7-7v14"></path></symbol>
<symbol viewBox="0 0 24 24" id="x"><path fill="none" stroke="currentColor" stroke-linecap="round" stroke-linejoin="round" stroke-width="2" d="M18 6L6 18M6 6l12 12"></path></symbol>
<symbol viewBox="0 0 24 24" id="trash"><path fill="none" stroke="currentColor" stroke-linecap="round" stroke-linejoin="round" stroke-width="2" d="M3 6h18m-2 0v14c0 1-1 2-2 2H7c-1 0-2-1-2-2V6m3 0V4c0-1 1-2 2-2h4c1 0 2 1 2 2v2"></path></symbol>
<symbol viewBox="0 0 24 24" id="trash-2"><path fill="none" stroke="currentColor" stroke-linecap="round" stroke-linejoin="round" stroke-width="2" d="M3 6h18m-2 0v14c0 1-1 2-2 2H7c-1 0-2-1-2-2V6m3 0V4c0-1 1-2 2-2h4c1 0 2 1 2 2v2m-6 5v6m4-6v6"></path></symbol>
<symbol viewBox="0 0 15 15" id="dot-filled"><path fill="currentColor" d="M9.875 7.5a2.375 2.375 0 1 1-4.75 0a2.375 2.375 0 0 1 4.75 0"></path></symbol>
<symbol viewBox="0 0 24 24" id="circle"><circle cx="12" cy="12" r="10" fill="none" stroke="currentColor" stroke-linecap="round" stroke-linejoin="round" stroke-width="2"></circle></symbol>
<symbol viewBox="0 0 24 24" id="user"><g fill="none" stroke="currentColor" stroke-linecap="round" stroke-linejoin="round" stroke-width="2"><path d="M19 21v-2a4 4 0 0 0-4-4H9a4 4 0 0 0-4 4v2"></path><circle cx="12" cy="7" r="4"></circle></g></symbol>
<symbol viewBox="0 0 24 24" id="user-round"><g fill="none" stroke="currentColor" stroke-linecap="round" stroke-linejoin="round" stroke-width="2"><circle cx="12" cy="8" r="5"></circle><path d="M20 21a8 8 0 0 0-16 0"></path></g></symbol>
<symbol viewBox="0 0 24 24" id="sun"><g fill="none" stroke="currentColor" stroke-linecap="round" stroke-linejoin="round" stroke-width="2"><circle cx="12" cy="12" r="4"></circle><path d="M12 2v2m0 16v2M4.93 4.93l1.41 1.41m11.32 11.32l1.41 1.41M2 12h2m16 0h2M6.34 17.66l-1.41 1.41M19.07 4.93l-1.41 1.41"></path></g></symbol>
<symbol viewBox="0 0 24 24" id="moon"><path fill="none" stroke="currentColor" stroke-linecap="round" stroke-linejoin="round" stroke-width="2" d="M12 3a6 6 0 0 0 9 9a9 9 0 1 1-9-9"></path></symbol>
<symbol viewBox="0 0 24 24" id="laptop"><path fill="none" stroke="currentColor" stroke-linecap="round" stroke-linejoin="round" stroke-width="2" d="M20 16V7a2 2 0 0 0-2-2H6a2 2 0 0 0-2 2v9m16 0H4m16 0l1.28 2.55a1 1 0 0 1-.9 1.45H3.62a1 1 0 0 1-.9-1.45L4 16"></path></symbol>
<symbol viewBox="0 0 24 24" id="log-out"><path fill="none" stroke="currentColor" stroke-linecap="round" stroke-linejoin="round" stroke-width="2" d="M9 21H5a2 2 0 0 1-2-2V5a2 2 0 0 1 2-2h4m7 14l5-5l-5-5m5 5H9"></path></symbol>
<symbol viewBox="0 0 24 24" id="dots-horizontal"><g fill="none" stroke="currentColor" stroke-linecap="round" stroke-linejoin="round" stroke-width="2"><circle cx="12" cy="12" r="1"></circle><circle cx="19" cy="12" r="1"></circle><circle cx="5" cy="12" r="1"></circle></g></symbol>
<symbol viewBox="0 0 24 24" id="dots-vertical"><g fill="none" stroke="currentColor" stroke-linecap="round" stroke-linejoin="round" stroke-width="2"><circle cx="12" cy="12" r="1"></circle><circle cx="12" cy="5" r="1"></circle><circle cx="12" cy="19" r="1"></circle></g></symbol>
<symbol viewBox="0 0 24 24" id="remix"><path fill="currentColor" d="M21.511 18.508c.216 2.773.216 4.073.216 5.492H15.31c0-.309.006-.592.011-.878c.018-.892.036-1.821-.109-3.698c-.19-2.747-1.374-3.358-3.55-3.358H1.574v-5H11.97c2.748 0 4.122-.835 4.122-3.049c0-1.946-1.374-3.125-4.122-3.125H1.573V0h11.541c6.221 0 9.313 2.938 9.313 7.632c0 3.511-2.176 5.8-5.114 6.182c2.48.497 3.93 1.909 4.198 4.694M1.573 24v-3.727h6.784c1.133 0 1.379.84 1.379 1.342V24Z"></path></symbol>
<symbol viewBox="0 0 24 24" id="house"><g fill="none" stroke="currentColor" stroke-linecap="round" stroke-linejoin="round" stroke-width="2"><path d="M15 21v-8a1 1 0 0 0-1-1h-4a1 1 0 0 0-1 1v8"></path><path d="M3 10a2 2 0 0 1 .709-1.528l7-5.999a2 2 0 0 1 2.582 0l7 5.999A2 2 0 0 1 21 10v9a2 2 0 0 1-2 2H5a2 2 0 0 1-2-2z"></path></g></symbol>
<symbol viewBox="0 0 24 24" id="x"><path fill="none" stroke="currentColor" stroke-linecap="round" stroke-linejoin="round" stroke-width="2" d="M18 6L6 18M6 6l12 12"></path></symbol>
<symbol viewBox="0 0 24 24" id="search"><g fill="none" stroke="currentColor" stroke-linecap="round" stroke-linejoin="round" stroke-width="2"><circle cx="11" cy="11" r="8"></circle><path d="m21 21l-4.3-4.3"></path></g></symbol>
<symbol viewBox="0 0 24 24" id="panel-left"><g fill="none" stroke="currentColor" stroke-linecap="round" stroke-linejoin="round" stroke-width="2"><rect width="18" height="18" x="3" y="3" rx="2"></rect><path d="M9 3v18"></path></g></symbol>
<symbol viewBox="0 0 24 24" id="folder-git-2"><g fill="none" stroke="currentColor" stroke-linecap="round" stroke-linejoin="round" stroke-width="2"><path d="M9 20H4a2 2 0 0 1-2-2V5a2 2 0 0 1 2-2h3.9a2 2 0 0 1 1.69.9l.81 1.2a2 2 0 0 0 1.67.9H20a2 2 0 0 1 2 2v5"></path><circle cx="13" cy="12" r="2"></circle><path d="M18 19c-2.8 0-5-2.2-5-5v8"></path><circle cx="20" cy="19" r="2"></circle></g></symbol>
<symbol viewBox="0 0 24 24" id="folder"><path fill="none" stroke="currentColor" stroke-linecap="round" stroke-linejoin="round" stroke-width="2" d="M20 20a2 2 0 0 0 2-2V8a2 2 0 0 0-2-2h-7.9a2 2 0 0 1-1.69-.9L9.6 3.9A2 2 0 0 0 7.93 3H4a2 2 0 0 0-2 2v13a2 2 0 0 0 2 2Z"></path></symbol>
<symbol viewBox="0 0 24 24" id="tickets"><g fill="none" stroke="currentColor" stroke-linecap="round" stroke-linejoin="round" stroke-width="2"><path d="m4.5 8l10.58-5.06a1 1 0 0 1 1.342.488L18.5 8M6 10V8m0 6v1m0 4v2"></path><rect width="20" height="13" x="2" y="8" rx="2"></rect></g></symbol>
<symbol viewBox="0 0 14 14" id="circle-dashed"><path fill="currentColor" d="m13.94 7.914-1.982-.258a5 5 0 0 0 0-1.312l1.983-.258a7 7 0 0 1 0 1.828M13.47 4.32a7 7 0 0 0-.915-1.581l-1.586 1.218q.4.52.653 1.13zm-2.207-2.874-1.22 1.586a5 5 0 0 0-1.129-.653L9.68.53c.569.236 1.1.545 1.582.915M7.914.06l-.258 1.983a5 5 0 0 0-1.312 0L6.086.06a7 7 0 0 1 1.828 0M4.32.531l.767 1.848a5 5 0 0 0-1.13.653L2.74 1.446A7 7 0 0 1 4.32.531M1.446 2.74l1.586 1.218a5 5 0 0 0-.653 1.13L.53 4.32c.236-.569.545-1.1.915-1.581M.06 6.086a7 7 0 0 0 0 1.828l1.983-.258a5 5 0 0 1 0-1.312zM.531 9.68l1.848-.767q.254.61.653 1.13l-1.586 1.219A7 7 0 0 1 .531 9.68m2.208 2.874 1.218-1.586q.52.4 1.13.653L4.32 13.47a7 7 0 0 1-1.581-.915m3.347 1.387.258-1.983a5 5 0 0 0 1.312 0l.258 1.983a7 7 0 0 1-1.828 0m3.594-.472-.767-1.848a5 5 0 0 0 1.13-.653l1.219 1.586a7 7 0 0 1-1.582.915m2.874-2.207-1.586-1.22c.265-.344.485-.723.653-1.129l1.848.767c-.236.569-.545 1.1-.915 1.582"></path></symbol>
<symbol viewBox="0 0 14 14" id="circle-progress" fill="none"><rect width="12" height="12" x="1" y="1" stroke="currentColor" stroke-width="2" rx="6"></rect><path fill="currentColor" d="M7 7V3.5a3.5 3.5 0 0 1 0 7z"></path></symbol>
<symbol viewBox="0 0 14 14" id="circle-check"><path fill="currentColor" stroke="currentColor" d="M9.545 3.545 9.9 3.9l-.354-.354L5.5 7.591 4.455 6.545a1.35 1.35 0 1 0-1.91 1.91l2 2a1.35 1.35 0 0 0 1.91 0l5-5a1.35 1.35 0 0 0 0-1.91L11.1 3.9l.354-.354a1.35 1.35 0 0 0-1.91 0ZM.5 7a6.5 6.5 0 1 1 13 0 6.5 6.5 0 0 1-13 0Z"></path></symbol>
<symbol viewBox="0 0 14 14" id="circle-x"><path fill="currentColor" fill-rule="evenodd" d="M7 14A7 7 0 1 0 7 0a7 7 0 0 0 0 14M5.03 3.97a.75.75 0 0 0-1.06 1.06L5.94 7 3.97 8.97a.75.75 0 1 0 1.06 1.06L7 8.06l1.97 1.97a.75.75 0 1 0 1.06-1.06L8.06 7l1.97-1.97a.75.75 0 1 0-1.06-1.06L7 5.94z" clip-rule="evenodd"></path></symbol>
<symbol viewBox="0 0 14 14" id="ellipsis-horizontal" fill="currentColor"><rect width="2" height="2" rx="1" transform="matrix(-1 0 0 1 5 6)"></rect><rect width="2" height="2" rx="1" transform="matrix(-1 0 0 1 8 6)"></rect><rect width="2" height="2" rx="1" transform="matrix(-1 0 0 1 11 6)"></rect></symbol>
<symbol viewBox="0 0 16 16" id="box-info" fill="currentColor"><path d="M3 1.75c-.69 0-1.25.56-1.25 1.25v10c0 .69.56 1.25 1.25 1.25h10c.69 0 1.25-.56 1.25-1.25V3c0-.69-.56-1.25-1.25-1.25zM.25 3A2.75 2.75 0 0 1 3 .25h10A2.75 2.75 0 0 1 15.75 3v10A2.75 2.75 0 0 1 13 15.75H3A2.75 2.75 0 0 1 .25 13z"></path><path d="M8.1 12h-.6a.5.5 0 0 1-.5-.5V7.7a.5.5 0 0 1 .5-.5h.6a.5.5 0 0 1 .5.5v3.8a.5.5 0 0 1-.5.5m0-6.4h-.6a.5.5 0 0 1-.5-.5v-.6a.5.5 0 0 1 .5-.5h.6a.5.5 0 0 1 .5.5v.6a.5.5 0 0 1-.5.5"></path></symbol>
<symbol viewBox="1 1 14 14" id="signal-high" fill="currentColor"><rect width="3" height="6" x="1" y="8" rx="1"></rect><rect width="3" height="9" x="6" y="5" rx="1"></rect><rect width="3" height="12" x="11" y="2" rx="1"></rect></symbol>
<symbol viewBox="1 1 14 14" id="signal-medium" fill="currentColor"><rect width="3" height="6" x="1" y="8" rx="1"></rect><rect width="3" height="9" x="6" y="5" rx="1"></rect><rect width="3" height="12" x="11" y="2" fill-opacity="0.4" rx="1"></rect></symbol>
<symbol viewBox="1 1 14 14" id="signal-low" fill="currentColor"><rect width="3" height="6" x="1" y="8" rx="1"></rect><rect width="3" height="9" x="6" y="5" fill-opacity="0.4" rx="1"></rect><rect width="3" height="12" x="11" y="2" fill-opacity="0.4" rx="1"></rect></symbol>
<symbol viewBox="0 0 24 24" id="list-filter"><path fill="none" stroke="currentColor" stroke-linecap="round" stroke-linejoin="round" stroke-width="2" d="M3 6h18M7 12h10m-7 6h4"></path></symbol>
<symbol viewBox="0 0 24 24" id="lunear"><path fill="currentColor" d="M9.37 5.51A7.4 7.4 0 0 0 9.1 7.5c0 4.08 3.32 7.4 7.4 7.4c.68 0 1.35-.09 1.99-.27A7.01 7.01 0 0 1 12 19c-3.86 0-7-3.14-7-7c0-2.93 1.81-5.45 4.37-6.49" opacity=".3"></path><path fill="currentColor" d="M9.37 5.51A7.4 7.4 0 0 0 9.1 7.5c0 4.08 3.32 7.4 7.4 7.4c.68 0 1.35-.09 1.99-.27A7.01 7.01 0 0 1 12 19c-3.86 0-7-3.14-7-7c0-2.93 1.81-5.45 4.37-6.49M12 3a9 9 0 1 0 9 9c0-.46-.04-.92-.1-1.36a5.39 5.39 0 0 1-4.4 2.26a5.403 5.403 0 0 1-3.14-9.8c-.44-.06-.9-.1-1.36-.1"></path></symbol>
<symbol viewBox="0 0 24 24" id="user-plus"><g fill="none" stroke="currentColor" stroke-linecap="round" stroke-linejoin="round" stroke-width="2"><path d="M16 21v-2a4 4 0 0 0-4-4H6a4 4 0 0 0-4 4v2"></path><circle cx="9" cy="7" r="4"></circle><path d="M19 8v6m3-3h-6"></path></g></symbol>
<symbol viewBox="0 0 24 24" id="user-minus"><g fill="none" stroke="currentColor" stroke-linecap="round" stroke-linejoin="round" stroke-width="2"><path d="M16 21v-2a4 4 0 0 0-4-4H6a4 4 0 0 0-4 4v2"></path><circle cx="9" cy="7" r="4"></circle><path d="M22 11h-6"></path></g></symbol>
<symbol viewBox="0 0 24 24" id="arrow-down-wide-narrow"><path fill="none" stroke="currentColor" stroke-linecap="round" stroke-linejoin="round" stroke-width="2" d="m3 16l4 4l4-4m-4 4V4m4 0h10M11 8h7m-7 4h4"></path></symbol>
<symbol viewBox="0 0 24 24" id="bold"><path fill="none" stroke="currentColor" stroke-linecap="round" stroke-linejoin="round" stroke-width="2" d="M6 12h9a4 4 0 0 1 0 8H7a1 1 0 0 1-1-1V5a1 1 0 0 1 1-1h7a4 4 0 0 1 0 8"></path></symbol>
<symbol viewBox="0 0 24 24" id="italic"><path fill="none" stroke="currentColor" stroke-linecap="round" stroke-linejoin="round" stroke-width="2" d="M19 4h-9m4 16H5M15 4L9 20"></path></symbol>
<symbol viewBox="0 0 24 24" id="strikethrough"><path fill="none" stroke="currentColor" stroke-linecap="round" stroke-linejoin="round" stroke-width="2" d="M16 4H9a3 3 0 0 0-2.83 4M14 12a4 4 0 0 1 0 8H6m-2-8h16"></path></symbol>
<symbol viewBox="0 0 24 24" id="heading-1"><path fill="none" stroke="currentColor" stroke-linecap="round" stroke-linejoin="round" stroke-width="2" d="M4 12h8m-8 6V6m8 12V6m5 6l3-2v8"></path></symbol>
<symbol viewBox="0 0 24 24" id="heading-2"><path fill="none" stroke="currentColor" stroke-linecap="round" stroke-linejoin="round" stroke-width="2" d="M4 12h8m-8 6V6m8 12V6m9 12h-4c0-4 4-3 4-6c0-1.5-2-2.5-4-1"></path></symbol>
<symbol viewBox="0 0 24 24" id="heading-3"><path fill="none" stroke="currentColor" stroke-linecap="round" stroke-linejoin="round" stroke-width="2" d="M4 12h8m-8 6V6m8 12V6m5.5 4.5c1.7-1 3.5 0 3.5 1.5a2 2 0 0 1-2 2m-2 3.5c2 1.5 4 .3 4-1.5a2 2 0 0 0-2-2"></path></symbol>
<symbol viewBox="0 0 24 24" id="heading-4"><path fill="none" stroke="currentColor" stroke-linecap="round" stroke-linejoin="round" stroke-width="2" d="M4 12h8m-8 6V6m8 12V6m5 4v4h4m0-4v8"></path></symbol>
<symbol viewBox="0 0 24 24" id="heading-5"><path fill="none" stroke="currentColor" stroke-linecap="round" stroke-linejoin="round" stroke-width="2" d="M4 12h8m-8 6V6m8 12V6m5 7v-3h4m-4 7.7c.4.2.8.3 1.3.3c1.5 0 2.7-1.1 2.7-2.5S19.8 13 18.3 13H17"></path></symbol>
<symbol viewBox="0 0 24 24" id="heading-6"><g fill="none" stroke="currentColor" stroke-linecap="round" stroke-linejoin="round" stroke-width="2"><path d="M4 12h8m-8 6V6m8 12V6"></path><circle cx="19" cy="16" r="2"></circle><path d="M20 10c-2 2-3 3.5-3 6"></path></g></symbol>
<symbol viewBox="0 0 24 24" id="align-center"><path fill="none" stroke="currentColor" stroke-linecap="round" stroke-linejoin="round" stroke-width="2" d="M21 6H3m14 6H7m12 6H5"></path></symbol>
<symbol viewBox="0 0 24 24" id="align-justify"><path fill="none" stroke="currentColor" stroke-linecap="round" stroke-linejoin="round" stroke-width="2" d="M3 6h18M3 12h18M3 18h18"></path></symbol>
<symbol viewBox="0 0 24 24" id="align-left"><path fill="none" stroke="currentColor" stroke-linecap="round" stroke-linejoin="round" stroke-width="2" d="M21 6H3m12 6H3m14 6H3"></path></symbol>
<symbol viewBox="0 0 24 24" id="align-right"><path fill="none" stroke="currentColor" stroke-linecap="round" stroke-linejoin="round" stroke-width="2" d="M21 6H3m18 6H9m12 6H7"></path></symbol>
<symbol viewBox="0 0 24 24" id="pin"><path fill="none" stroke="currentColor" stroke-linecap="round" stroke-linejoin="round" stroke-width="2" d="M12 17v5M9 10.76a2 2 0 0 1-1.11 1.79l-1.78.9A2 2 0 0 0 5 15.24V16a1 1 0 0 0 1 1h12a1 1 0 0 0 1-1v-.76a2 2 0 0 0-1.11-1.79l-1.78-.9A2 2 0 0 1 15 10.76V7a1 1 0 0 1 1-1a2 2 0 0 0 0-4H8a2 2 0 0 0 0 4a1 1 0 0 1 1 1z"></path></symbol>
<symbol viewBox="0 0 24 24" id="arrow-left"><path fill="none" stroke="currentColor" stroke-linecap="round" stroke-linejoin="round" stroke-width="2" d="m12 19l-7-7l7-7m7 7H5"></path></symbol>
</defs>
</svg>
