<svg xmlns="http://www.w3.org/2000/svg" xmlns:xlink="http://www.w3.org/1999/xlink">
<defs>
<symbol viewBox="0 0 24 24" id="check"><path fill="none" stroke="currentColor" stroke-linecap="round" stroke-linejoin="round" stroke-width="2" d="M20 6L9 17l-5-5"></path></symbol>
<symbol viewBox="0 0 24 24" id="chevron-down"><path fill="none" stroke="currentColor" stroke-linecap="round" stroke-linejoin="round" stroke-width="2" d="m6 9l6 6l6-6"></path></symbol>
<symbol viewBox="0 0 24 24" id="chevron-first"><path fill="none" stroke="currentColor" stroke-linecap="round" stroke-linejoin="round" stroke-width="2" d="m17 18l-6-6l6-6M7 6v12"></path></symbol>
<symbol viewBox="0 0 24 24" id="chevron-last"><path fill="none" stroke="currentColor" stroke-linecap="round" stroke-linejoin="round" stroke-width="2" d="m7 18l6-6l-6-6m10 0v12"></path></symbol>
<symbol viewBox="0 0 24 24" id="chevron-left"><path fill="none" stroke="currentColor" stroke-linecap="round" stroke-linejoin="round" stroke-width="2" d="m15 18l-6-6l6-6"></path></symbol>
<symbol viewBox="0 0 24 24" id="chevron-right"><path fill="none" stroke="currentColor" stroke-linecap="round" stroke-linejoin="round" stroke-width="2" d="m9 18l6-6l-6-6"></path></symbol>
<symbol viewBox="0 0 24 24" id="chevron-up"><path fill="none" stroke="currentColor" stroke-linecap="round" stroke-linejoin="round" stroke-width="2" d="m18 15l-6-6l-6 6"></path></symbol>
<symbol viewBox="0 0 24 24" id="chevrons-down"><path fill="none" stroke="currentColor" stroke-linecap="round" stroke-linejoin="round" stroke-width="2" d="m7 6l5 5l5-5M7 13l5 5l5-5"></path></symbol>
<symbol viewBox="0 0 24 24" id="chevrons-down-up"><path fill="none" stroke="currentColor" stroke-linecap="round" stroke-linejoin="round" stroke-width="2" d="m7 20l5-5l5 5M7 4l5 5l5-5"></path></symbol>
<symbol viewBox="0 0 24 24" id="chevrons-left"><path fill="none" stroke="currentColor" stroke-linecap="round" stroke-linejoin="round" stroke-width="2" d="m11 17l-5-5l5-5m7 10l-5-5l5-5"></path></symbol>
<symbol viewBox="0 0 24 24" id="chevrons-left-right"><path fill="none" stroke="currentColor" stroke-linecap="round" stroke-linejoin="round" stroke-width="2" d="m9 7l-5 5l5 5m6-10l5 5l-5 5"></path></symbol>
<symbol viewBox="0 0 24 24" id="chevrons-left-right-ellipsis"><path fill="none" stroke="currentColor" stroke-linecap="round" stroke-linejoin="round" stroke-width="2" d="m18 8l4 4l-4 4M6 8l-4 4l4 4m2-4h.01M12 12h.01M16 12h.01"></path></symbol>
<symbol viewBox="0 0 24 24" id="chevrons-right"><path fill="none" stroke="currentColor" stroke-linecap="round" stroke-linejoin="round" stroke-width="2" d="m6 17l5-5l-5-5m7 10l5-5l-5-5"></path></symbol>
<symbol viewBox="0 0 24 24" id="chevrons-right-left"><path fill="none" stroke="currentColor" stroke-linecap="round" stroke-linejoin="round" stroke-width="2" d="m20 17l-5-5l5-5M4 17l5-5l-5-5"></path></symbol>
<symbol viewBox="0 0 24 24" id="chevrons-up"><path fill="none" stroke="currentColor" stroke-linecap="round" stroke-linejoin="round" stroke-width="2" d="m17 11l-5-5l-5 5m10 7l-5-5l-5 5"></path></symbol>
<symbol viewBox="0 0 24 24" id="chevrons-up-down"><path fill="none" stroke="currentColor" stroke-linecap="round" stroke-linejoin="round" stroke-width="2" d="m7 15l5 5l5-5M7 9l5-5l5 5"></path></symbol>
<symbol viewBox="0 0 24 24" id="loader"><path fill="none" stroke="currentColor" stroke-linecap="round" stroke-linejoin="round" stroke-width="2" d="M12 2v4m4.2 1.8l2.9-2.9M18 12h4m-5.8 4.2l2.9 2.9M12 18v4m-7.1-2.9l2.9-2.9M2 12h4M4.9 4.9l2.9 2.9"></path></symbol>
<symbol viewBox="0 0 24 24" id="loader-circle"><path fill="none" stroke="currentColor" stroke-linecap="round" stroke-linejoin="round" stroke-width="2" d="M21 12a9 9 0 1 1-6.219-8.56"></path></symbol>
<symbol viewBox="0 0 24 24" id="minus"><path fill="none" stroke="currentColor" stroke-linecap="round" stroke-linejoin="round" stroke-width="2" d="M5 12h14"></path></symbol>
<symbol viewBox="0 0 24 24" id="plus"><path fill="none" stroke="currentColor" stroke-linecap="round" stroke-linejoin="round" stroke-width="2" d="M5 12h14m-7-7v14"></path></symbol>
<symbol viewBox="0 0 24 24" id="x"><path fill="none" stroke="currentColor" stroke-linecap="round" stroke-linejoin="round" stroke-width="2" d="M18 6L6 18M6 6l12 12"></path></symbol>
<symbol viewBox="0 0 24 24" id="trash"><path fill="none" stroke="currentColor" stroke-linecap="round" stroke-linejoin="round" stroke-width="2" d="M3 6h18m-2 0v14c0 1-1 2-2 2H7c-1 0-2-1-2-2V6m3 0V4c0-1 1-2 2-2h4c1 0 2 1 2 2v2"></path></symbol>
<symbol viewBox="0 0 24 24" id="trash-2"><path fill="none" stroke="currentColor" stroke-linecap="round" stroke-linejoin="round" stroke-width="2" d="M3 6h18m-2 0v14c0 1-1 2-2 2H7c-1 0-2-1-2-2V6m3 0V4c0-1 1-2 2-2h4c1 0 2 1 2 2v2m-6 5v6m4-6v6"></path></symbol>
<symbol viewBox="0 0 15 15" id="dot-filled"><path fill="currentColor" d="M9.875 7.5a2.375 2.375 0 1 1-4.75 0a2.375 2.375 0 0 1 4.75 0"></path></symbol>
<symbol viewBox="0 0 24 24" id="circle"><circle cx="12" cy="12" r="10" fill="none" stroke="currentColor" stroke-linecap="round" stroke-linejoin="round" stroke-width="2"></circle></symbol>
<symbol viewBox="0 0 24 24" id="user"><g fill="none" stroke="currentColor" stroke-linecap="round" stroke-linejoin="round" stroke-width="2"><path d="M19 21v-2a4 4 0 0 0-4-4H9a4 4 0 0 0-4 4v2"></path><circle cx="12" cy="7" r="4"></circle></g></symbol>
<symbol viewBox="0 0 24 24" id="user-round"><g fill="none" stroke="currentColor" stroke-linecap="round" stroke-linejoin="round" stroke-width="2"><circle cx="12" cy="8" r="5"></circle><path d="M20 21a8 8 0 0 0-16 0"></path></g></symbol>
<symbol viewBox="0 0 24 24" id="sun"><g fill="none" stroke="currentColor" stroke-linecap="round" stroke-linejoin="round" stroke-width="2"><circle cx="12" cy="12" r="4"></circle><path d="M12 2v2m0 16v2M4.93 4.93l1.41 1.41m11.32 11.32l1.41 1.41M2 12h2m16 0h2M6.34 17.66l-1.41 1.41M19.07 4.93l-1.41 1.41"></path></g></symbol>
<symbol viewBox="0 0 24 24" id="moon"><path fill="none" stroke="currentColor" stroke-linecap="round" stroke-linejoin="round" stroke-width="2" d="M12 3a6 6 0 0 0 9 9a9 9 0 1 1-9-9"></path></symbol>
<symbol viewBox="0 0 24 24" id="laptop"><path fill="none" stroke="currentColor" stroke-linecap="round" stroke-linejoin="round" stroke-width="2" d="M20 16V7a2 2 0 0 0-2-2H6a2 2 0 0 0-2 2v9m16 0H4m16 0l1.28 2.55a1 1 0 0 1-.9 1.45H3.62a1 1 0 0 1-.9-1.45L4 16"></path></symbol>
<symbol viewBox="0 0 24 24" id="log-out"><path fill="none" stroke="currentColor" stroke-linecap="round" stroke-linejoin="round" stroke-width="2" d="M9 21H5a2 2 0 0 1-2-2V5a2 2 0 0 1 2-2h4m7 14l5-5l-5-5m5 5H9"></path></symbol>
<symbol viewBox="0 0 24 24" id="dots-horizontal"><g fill="none" stroke="currentColor" stroke-linecap="round" stroke-linejoin="round" stroke-width="2"><circle cx="12" cy="12" r="1"></circle><circle cx="19" cy="12" r="1"></circle><circle cx="5" cy="12" r="1"></circle></g></symbol>
<symbol viewBox="0 0 24 24" id="dots-vertical"><g fill="none" stroke="currentColor" stroke-linecap="round" stroke-linejoin="round" stroke-width="2"><circle cx="12" cy="12" r="1"></circle><circle cx="12" cy="5" r="1"></circle><circle cx="12" cy="19" r="1"></circle></g></symbol>
<symbol viewBox="0 0 24 24" id="remix"><path fill="currentColor" d="M21.511 18.508c.216 2.773.216 4.073.216 5.492H15.31c0-.309.006-.592.011-.878c.018-.892.036-1.821-.109-3.698c-.19-2.747-1.374-3.358-3.55-3.358H1.574v-5H11.97c2.748 0 4.122-.835 4.122-3.049c0-1.946-1.374-3.125-4.122-3.125H1.573V0h11.541c6.221 0 9.313 2.938 9.313 7.632c0 3.511-2.176 5.8-5.114 6.182c2.48.497 3.93 1.909 4.198 4.694M1.573 24v-3.727h6.784c1.133 0 1.379.84 1.379 1.342V24Z"></path></symbol>
<symbol viewBox="0 0 24 24" id="house"><g fill="none" stroke="currentColor" stroke-linecap="round" stroke-linejoin="round" stroke-width="2"><path d="M15 21v-8a1 1 0 0 0-1-1h-4a1 1 0 0 0-1 1v8"></path><path d="M3 10a2 2 0 0 1 .709-1.528l7-5.999a2 2 0 0 1 2.582 0l7 5.999A2 2 0 0 1 21 10v9a2 2 0 0 1-2 2H5a2 2 0 0 1-2-2z"></path></g></symbol>
<symbol viewBox="0 0 24 24" id="x"><path fill="none" stroke="currentColor" stroke-linecap="round" stroke-linejoin="round" stroke-width="2" d="M18 6L6 18M6 6l12 12"></path></symbol>
<symbol viewBox="0 0 24 24" id="search"><g fill="none" stroke="currentColor" stroke-linecap="round" stroke-linejoin="round" stroke-width="2"><circle cx="11" cy="11" r="8"></circle><path d="m21 21l-4.3-4.3"></path></g></symbol>
<symbol viewBox="0 0 24 24" id="panel-left"><g fill="none" stroke="currentColor" stroke-linecap="round" stroke-linejoin="round" stroke-width="2"><rect width="18" height="18" x="3" y="3" rx="2"></rect><path d="M9 3v18"></path></g></symbol>
<symbol viewBox="0 0 17 24" id="lunear"><path d="M0.359375 24V0.727272H6.67756V18.9091H16.0866V24H0.359375Z" fill="currentColor"/></symbol>
</defs>
</svg>
